<?xml version="1.0" encoding="UTF-8" standalone="no"?>
<!-- Created with Inkscape (http://www.inkscape.org/) -->

<svg
   xmlns:dc="http://purl.org/dc/elements/1.1/"
   xmlns:cc="http://creativecommons.org/ns#"
   xmlns:rdf="http://www.w3.org/1999/02/22-rdf-syntax-ns#"
   xmlns:svg="http://www.w3.org/2000/svg"
   xmlns="http://www.w3.org/2000/svg"
   xmlns:sodipodi="http://sodipodi.sourceforge.net/DTD/sodipodi-0.dtd"
   xmlns:inkscape="http://www.inkscape.org/namespaces/inkscape"
   id="svg3039"
   version="1.1"
   inkscape:version="0.48.5 r10040"
   width="250"
   height="250"
   sodipodi:docname="icon.svg"
   inkscape:export-filename="/home/sidzi/projects/com-graphics/icon_splash.png"
   inkscape:export-xdpi="85.43"
   inkscape:export-ydpi="85.43">
  <metadata
     id="metadata3045">
    <rdf:RDF>
      <cc:Work
         rdf:about="">
        <dc:format>image/svg+xml</dc:format>
        <dc:type
           rdf:resource="http://purl.org/dc/dcmitype/StillImage" />
        <dc:title></dc:title>
      </cc:Work>
    </rdf:RDF>
  </metadata>
  <defs
     id="defs3043" />
  <sodipodi:namedview
     pagecolor="#ffffff"
     bordercolor="#666666"
     borderopacity="1"
     objecttolerance="10"
     gridtolerance="10"
     guidetolerance="10"
     inkscape:pageopacity="0"
     inkscape:pageshadow="2"
     inkscape:window-width="531"
     inkscape:window-height="445"
     id="namedview3041"
     showgrid="false"
     inkscape:zoom="1.9801684"
     inkscape:cx="126.96528"
     inkscape:cy="124.15631"
     inkscape:window-x="660"
     inkscape:window-y="0"
     inkscape:window-maximized="0"
     inkscape:current-layer="svg3039" />
  <g
     id="g4106"
     inkscape:export-filename="/home/sidzi/projects/com-graphics/icon.png"
     inkscape:export-xdpi="284.78"
     inkscape:export-ydpi="284.78">
    <g
       style="stroke:#ffffff;stroke-opacity:1;stroke-width:14;stroke-miterlimit:4;stroke-dasharray:none"
       id="g4066">
      <path
         style="fill:#ffffff;fill-opacity:1;stroke:#ffffff;stroke-width:14;stroke-miterlimit:4;stroke-opacity:1;stroke-dasharray:none"
         d="m 172.13165,111.91397 c -7.26265,-7.04002 -8.53156,-8.51413 -9.91174,-11.51453 -0.87055,-1.892496 -1.50781,-3.91581 -1.41615,-4.49625 0.15019,-0.95097 0.63264,-0.746787 4.87816,2.064531 5.67441,3.757509 11.57686,9.789329 13.33299,13.625229 1.07404,2.346 2.26277,8.41316 1.64564,8.39917 -0.10999,-0.003 -3.948,-3.63767 -8.5289,-8.07815 l 0,0 z"
         id="path4038"
         inkscape:connector-curvature="0" />
      <path
         style="fill:#ffffff;fill-opacity:1;stroke:#ffffff;stroke-width:14;stroke-miterlimit:4;stroke-opacity:1;stroke-dasharray:none"
         d="m 144.04479,184.91793 c -12.60681,-3.55226 -21.3689,-11.81717 -24.89151,-23.47908 -3.10529,-10.28032 -0.7093,-22.57203 5.99765,-30.76867 1.08252,-1.32296 3.44926,-4.20802 5.25942,-6.41123 3.60807,-4.39153 6.57915,-10.21375 8.064,-15.80251 1.31692,-4.95667 1.3015,-15.495018 -0.03,-20.495637 -1.96764,-7.389828 -4.8933,-12.513345 -10.52441,-18.430743 -5.54407,-5.825929 -12.75372,-9.972009 -20.22216,-11.629237 -2.63467,-0.584627 -2.85778,-0.724212 -1.79514,-1.123095 0.6674,-0.250522 3.7523,-0.923565 6.85533,-1.495651 4.74203,-0.874255 7.03257,-0.999468 14.36116,-0.785052 9.07947,0.265643 12.75159,0.858647 20.00303,3.230249 9.97297,3.261687 18.64352,8.512885 26.56334,16.087721 6.6341,6.345128 10.98909,12.198266 14.70778,19.767392 5.16799,10.519083 7.23639,19.360293 7.28684,31.147013 0.0492,11.48542 -2.32998,21.84609 -7.28436,31.72194 -6.5547,13.06584 -17.93025,24.99167 -26.39955,27.67659 -4.58752,1.45433 -14.10702,1.87327 -17.95144,0.79 l 0,0 z m 1.17526,-10.06106 c 5.16623,-1.19169 10.61216,-5.09384 13.53385,-9.69736 1.39715,-2.20139 1.44722,-2.51174 1.44801,-8.97572 4.5e-4,-3.68252 0.15291,-14.47024 0.33881,-23.97271 l 0.33798,-17.27723 2.61036,1.3062 c 7.92844,3.96732 14.37931,9.50487 16.75618,14.38383 1.80173,3.69836 1.62131,9.58287 -0.4935,16.09653 -1.92637,5.93323 -1.97246,6.61717 -0.44519,6.60678 2.13585,-0.0145 2.76518,-0.90472 4.84429,-6.85218 1.83158,-5.23936 2.20788,-14.23734 0.76622,-18.32149 -0.93731,-2.65535 -0.95734,-3.0781 -0.26733,-5.64188 0.48356,-1.79671 0.67278,-4.30474 0.538,-7.13108 -0.36718,-7.70017 -3.14933,-12.3357 -14.43807,-24.056179 -7.65677,-7.949609 -8.63995,-9.34872 -10.12704,-14.411188 -0.63269,-2.153856 -0.80647,-2.318677 -2.60135,-2.467228 l -1.92337,-0.159186 0,37.752231 0,37.75222 -1.92337,-0.40791 c -1.05785,-0.22436 -3.60316,-0.37277 -5.65625,-0.32981 -9.46771,0.19809 -19.60399,8.97438 -19.60399,16.97371 0,1.51014 0.34596,3.41473 0.76881,4.23242 0.88509,1.71158 3.41124,3.73127 5.64242,4.51119 1.98059,0.69232 7.07417,0.73661 9.89453,0.086 l 0,0 z"
         id="path4036"
         inkscape:connector-curvature="0" />
    </g>
    <path
       sodipodi:nodetypes="csssssssssssssssssscccssssssssccsscsscsscsssssccc"
       inkscape:connector-curvature="0"
       id="path3892"
       d="m 177.32139,180.88671 c -1.53383,1.40241 -3.96497,3.43992 -5.68705,4.76625 -8.40576,6.47402 -17.9918,11.08644 -28.33983,13.63594 -14.10677,3.47558 -29.08413,2.83762 -42.82361,-1.82411 -10.449026,-3.5453 -19.236676,-8.81082 -28.009188,-16.78301 -1.226592,-1.11469 -3.818798,-3.78048 -4.245645,-4.36616 -0.150688,-0.20677 -0.765923,-0.94402 -1.367176,-1.6383 -8.1559,-9.41808 -13.993309,-21.1852 -16.621624,-33.50608 -1.097918,-5.14677 -1.646667,-9.97303 -1.718156,-15.11114 -0.247965,-17.82326 5.707943,-35.143058 16.839067,-48.968108 3.804899,-4.72575 6.689,-7.62373 11.4819,-11.53707 11.379016,-9.29093 25.640172,-15.181299 40.323602,-16.655107 3.71565,-0.372928 8.71387,-0.502096 11.9508,-0.308816 9.7613,0.58288 18.7808,2.780192 27.40448,6.676273 7.76498,3.50811 14.38144,7.94921 21.2688,14.27606 2.84629,2.61464 6.65603,7.03083 9.54468,11.06405 6.74157,9.41278 11.28762,20.440318 13.1685,31.943458 1.06236,6.49724 1.28441,13.08131 0.66645,19.7615 -1.39802,15.11262 -7.5125,29.82414 -17.25227,41.5092 -2.77519,3.32946 -4.37161,5.04266 -6.5837,7.0652 z m 3.09033,-5.79229 c 6.88008,-7.64302 11.87113,-16.09261 15.22527,-25.77558 3.26811,-9.43461 4.59517,-19.78932 3.83868,-29.95221 -0.89954,-12.0849 -4.74429,-23.813308 -11.14935,-34.011058 -2.03715,-3.24342 -4.06962,-6.0008 -6.73854,-9.14192 -1.52275,-1.79217 -6.00719,-6.27662 -7.79937,-7.79937 -3.14708,-2.67397 -5.88556,-4.69325 -9.1193,-6.72432 -14.51398,-9.116019 -31.93983,-12.951347 -49.04105,-10.793667 -11.47659,1.448016 -22.356422,5.490447 -31.958746,11.874387 -1.576149,1.04787 -2.041322,1.40764 -1.944823,1.50414 0.02675,0.0267 0.377045,-0.0982 0.778523,-0.27763 5.33365,-2.38344 10.459797,-3.47189 16.10926,-3.42051 9.073476,0.0826 17.493456,3.26507 24.385566,9.21713 2.04022,1.76195 4.57914,4.57359 6.15027,6.80957 5.32168,7.57574 7.65526,16.84752 6.57558,26.126098 -0.60054,5.16097 -2.42052,10.48203 -5.10744,14.93259 -1.6557,2.74245 -2.98072,4.43473 -5.82292,7.43686 -0.97328,1.02808 -1.99909,2.15159 -2.27954,2.49672 -4.94055,6.08002 -7.768,12.96762 -8.51218,20.73546 -0.13332,1.39158 -0.14062,5.34521 -0.0123,6.69269 1.07597,11.30432 6.7506,21.1682 15.92283,27.67779 4.72035,3.35005 10.56651,5.67853 16.34599,6.51046 3.75586,0.54064 8.32682,0.47637 12.01475,-0.16894 3.18963,-0.55811 6.86151,-1.71744 9.56212,-3.01906 0.64544,-0.31107 1.0995,-0.59891 1.95581,-1.23976 1.7353,-1.2987 3.88416,-3.08059 5.685,-4.71414 0.90556,-0.82149 4.04714,-3.98827 4.93601,-4.9757 z"
       style="fill:#005d5d;fill-opacity:1;stroke:#005d5d;stroke-width:5;stroke-miterlimit:4;stroke-opacity:1;stroke-dasharray:none" />
    <path
       inkscape:connector-curvature="0"
       id="path3869"
       d="m 89.086776,173.54869 c -0.009,-0.99633 2.1638,-8.92978 9.027404,-32.95537 1.75858,-6.15581 2.95672,-11.46416 2.66253,-11.79631 -0.29419,-0.33215 -2.76276,0.31188 -5.48572,1.43118 -9.459634,3.88851 -17.610014,1.67194 -20.627904,-5.60995 -1.52965,-3.69089 -1.53344,-3.9503 -0.11201,-7.67226 3.37019,-8.82471 13.22345,-9.39249 17.55732,-1.01173 0.907594,1.7551 1.168184,3.66544 0.8333,6.10872 -0.5836,4.25784 0.166344,4.90813 3.787224,3.284 6.10756,-2.73952 6.9136,-4.25488 11.86264,-22.30182 1.22719,-4.474952 2.03208,-8.335462 1.78865,-8.578882 -0.24342,-0.24342 -2.53427,0.34001 -5.09076,1.29651 -5.41768,2.02702 -11.96754,2.25179 -15.306244,0.52529 -1.291,-0.66761 -3.32441,-2.37508 -4.51869,-3.79441 -4.20267,-4.99458 -2.18362,-13.12098 3.98755,-16.04939 4.011434,-1.90354 7.200854,-1.13879 10.387604,2.49072 2.20703,2.51366 2.52194,3.48991 2.52194,7.81789 0,4.15852 0.23089,4.94506 1.45087,4.94245 2.38184,-0.005 6.37253,-2.87744 10.24468,-7.37375 3.45418,-4.01096 5.71485,-5.32479 5.71485,-3.32131 0,0.49983 -1.819,7.30855 -4.04224,15.13047 -4.98093,17.524242 -9.26684,32.798402 -15.85493,56.504032 -6.21449,22.3613 -6.05985,21.97025 -8.687844,21.97025 -1.14974,0 -2.09484,-0.46635 -2.10022,-1.03633 z"
       style="fill:#ffffff;fill-opacity:1;stroke:#000000;stroke-width:0;stroke-miterlimit:4;stroke-opacity:1;stroke-dasharray:none" />
    <path
       inkscape:connector-curvature="0"
       id="path3856"
       d="m 135.94724,174.23905 c -2.32759,-0.83027 -4.43759,-2.39265 -5.4666,-4.04784 -1.35622,-2.18154 -1.30074,-5.83371 0.13552,-8.92154 1.97987,-4.25652 6.98224,-8.52535 12.36607,-10.55276 3.43019,-1.29171 8.05214,-1.51331 10.9559,-0.52527 1.55524,0.52919 2.38698,0.64152 2.66815,0.36035 0.27543,-0.27542 0.40853,-12.61703 0.40853,-37.88142 l 0,-37.472934 1.33206,0 c 1.31978,0 1.33646,0.0228 1.80746,2.47052 0.94644,4.91855 1.82788,6.19576 9.18842,13.31414 9.13379,8.8333 12.93116,14.072174 14.7599,20.362804 0.83193,2.86176 0.63035,8.92484 -0.39674,11.93283 l -0.69305,2.02971 1.10367,2.7137 c 1.00485,2.47068 1.10101,3.13847 1.07385,7.4571 -0.0335,5.32573 -0.78616,8.86345 -2.97343,13.97559 -1.11958,2.61671 -1.43812,3.03838 -2.37717,3.14669 -0.5964,0.0688 -1.08436,-0.06 -1.08436,-0.28617 0,-0.22619 0.51158,-1.7055 1.13685,-3.28734 2.30408,-5.82913 3.09145,-12.12302 2.05341,-16.41413 -1.02514,-4.23774 -5.15878,-9.1495 -10.88637,-12.9356 -4.49697,-2.97263 -10.00339,-5.86046 -10.67969,-5.60093 -0.49148,0.1886 -0.59006,3.65096 -0.6848,24.0531 l -0.11067,23.83281 -1.09975,2.23946 c -1.34518,2.73924 -5.0932,6.35059 -8.43442,8.12686 -4.29483,2.28324 -10.6456,3.14347 -14.10274,1.91027 z M 181.444,118.68677 c 0.15397,-3.22689 -0.96788,-6.93715 -3.05991,-10.12 -2.10481,-3.2023 -7.34389,-8.16945 -11.48719,-10.890964 -4.85512,-3.18907 -5.75849,-3.65466 -6.52232,-3.36155 -1.04632,0.40151 -0.46672,3.39461 1.40131,7.236594 1.42293,2.92651 2.05878,3.6859 6.78517,8.10334 2.86832,2.68082 6.73568,6.41355 8.59413,8.29494 1.85846,1.88141 3.55688,3.37925 3.77429,3.32854 0.2174,-0.0507 0.44894,-1.21661 0.51452,-2.5909 z"
       style="fill:#005d5d;fill-opacity:1;stroke:#000000;stroke-width:0;stroke-miterlimit:4;stroke-opacity:1;stroke-dasharray:none" />
  </g>
</svg>
