<?xml version="1.0" encoding="UTF-8" standalone="no"?>
<!-- Created with Inkscape (http://www.inkscape.org/) -->

<svg
   xmlns:dc="http://purl.org/dc/elements/1.1/"
   xmlns:cc="http://creativecommons.org/ns#"
   xmlns:rdf="http://www.w3.org/1999/02/22-rdf-syntax-ns#"
   xmlns:svg="http://www.w3.org/2000/svg"
   xmlns="http://www.w3.org/2000/svg"
   xmlns:sodipodi="http://sodipodi.sourceforge.net/DTD/sodipodi-0.dtd"
   xmlns:inkscape="http://www.inkscape.org/namespaces/inkscape"
   width="210mm"
   height="297mm"
   viewBox="0 0 744.09448819 1052.3622047"
   id="svg2"
   version="1.1"
   inkscape:version="0.91 r13725"
   sodipodi:docname="icon.svg">
  <defs
     id="defs4">
    <filter
       inkscape:menu-tooltip="In and out glow with a possible offset and colorizable flood"
       inkscape:menu="Shadows and Glows"
       inkscape:label="Cutout Glow"
       style="color-interpolation-filters:sRGB;"
       id="filter4142">
      <feOffset
         dy="3"
         dx="3"
         id="feOffset4144" />
      <feGaussianBlur
         stdDeviation="3"
         result="blur"
         id="feGaussianBlur4146" />
      <feFlood
         flood-color="rgb(0,0,0)"
         flood-opacity="1"
         result="flood"
         id="feFlood4148" />
      <feComposite
         in="flood"
         in2="SourceGraphic"
         operator="in"
         result="composite"
         id="feComposite4150" />
      <feBlend
         in="blur"
         in2="composite"
         mode="normal"
         id="feBlend4152" />
    </filter>
  </defs>
  <sodipodi:namedview
     id="base"
     pagecolor="#ffffff"
     bordercolor="#666666"
     borderopacity="1.0"
     inkscape:pageopacity="0.0"
     inkscape:pageshadow="2"
     inkscape:zoom="0.7"
     inkscape:cx="116.41936"
     inkscape:cy="341.06589"
     inkscape:document-units="px"
     inkscape:current-layer="layer1"
     showgrid="true"
     inkscape:showpageshadow="false"
     showborder="true"
     showguides="true"
     inkscape:snap-bbox="true"
     inkscape:snap-object-midpoints="true"
     inkscape:snap-grids="true"
     inkscape:window-width="1366"
     inkscape:window-height="705"
     inkscape:window-x="-8"
     inkscape:window-y="-8"
     inkscape:window-maximized="1"
     inkscape:snap-nodes="false"
     inkscape:snap-global="false">
    <inkscape:grid
       type="xygrid"
       id="grid4138" />
  </sodipodi:namedview>
  <metadata
     id="metadata7">
    <rdf:RDF>
      <cc:Work
         rdf:about="">
        <dc:format>image/svg+xml</dc:format>
        <dc:type
           rdf:resource="http://purl.org/dc/dcmitype/StillImage" />
        <dc:title></dc:title>
      </cc:Work>
    </rdf:RDF>
  </metadata>
  <g
     inkscape:label="Layer 1"
     inkscape:groupmode="layer"
     id="layer1">
    <g
       id="g4734"
       transform="translate(22.047221,-123.89387)">
      <g
         transform="translate(-130,75.941162)"
         id="g4784">
        <circle
           style="opacity:1;fill:#00796b;fill-opacity:1"
           id="path3336"
           cx="480"
           cy="574.13379"
           r="320.80991" />
        <circle
           r="304.35306"
           cy="574.13379"
           cx="480"
           id="circle4140"
           style="opacity:1;fill:#009688;fill-opacity:1;filter:url(#filter4142)" />
      </g>
      <path
         class="fil1 str1"
         d="m 194.01912,647.16943 413.24814,0 0,10.95172 c -15.08042,1.34106 -27.00967,4.24658 -35.33764,8.7167 -8.32801,4.47011 -16.88106,10.95174 -25.43412,20.11543 -8.5531,8.94015 -20.48236,21.67991 -36.01293,37.99576 -28.36019,29.27916 -61.6721,43.80695 -100.38602,43.80695 -13.27972,0 -26.33443,-1.78804 -39.61416,-5.36409 -11.25403,3.57605 -23.40841,5.36409 -36.01293,5.36409 -9.90357,0 -21.38267,-1.34105 -34.21226,-4.4701 -9.22833,7.15218 -23.85855,10.72822 -44.11582,10.72822 -13.95502,0 -28.36018,-1.78798 -42.76536,-5.81112 -14.40516,-3.79959 -27.23474,-9.38721 -38.71388,-16.98631 l 0,-7.15218 c 28.13508,13.41029 52.44383,20.11545 72.92615,20.11545 13.05469,0 24.98398,-2.45859 35.56275,-7.59916 10.80387,-5.14065 20.48237,-12.29282 29.26049,-21.45653 8.55309,-9.1637 16.65597,-18.99783 24.08364,-29.72605 7.20261,-10.72822 17.78136,-26.82064 31.28625,-48.27706 l -203.02279,0 c -13.27978,0 -25.43415,-4.47007 -36.46307,-13.4103 -11.02898,-8.94017 -19.80711,-20.11538 -26.10939,-33.74919 -6.302252,-13.63382 -9.453382,-27.04411 -9.453382,-40.23083 0,-13.41034 3.37621,-24.36204 9.903552,-32.85518 6.75243,-8.49327 16.65597,-12.73982 29.71065,-12.73982 12.82961,0 24.75889,4.69357 35.78784,13.85728 11.02897,8.94021 19.80711,20.56243 26.55951,34.41977 6.52734,13.85728 9.67848,26.82056 9.67848,39.11329 0,14.52781 -3.37623,26.15003 -10.3537,34.64326 z m 331.31877,12.51625 c -13.27979,0 -24.75887,3.12911 -33.98721,8.9402 -9.45338,5.81112 -20.9325,16.09237 -34.43733,30.62015 -13.50485,14.52782 -24.5338,25.92655 -33.53702,34.19618 -9.00324,8.2697 -21.15761,16.09243 -36.23802,23.24451 5.40197,0.89407 10.57881,1.34105 15.30551,1.34105 18.45659,0 35.11259,-4.91709 50.193,-14.97479 15.30549,-10.05775 27.68493,-21.23298 37.58848,-33.97273 9.90355,-12.51627 21.60775,-29.05561 35.11259,-49.39457 z m -78.32809,-0.894 c -14.18008,0.894 -26.78461,4.91709 -38.03865,12.06929 -11.25401,7.15209 -22.05793,16.09231 -32.63671,27.04399 -10.35369,10.95177 -20.93247,22.35052 -31.96142,33.97272 -11.02896,11.62229 -21.15763,19.89193 -30.1608,24.80904 2.47587,0.447 6.07714,0.447 10.80384,0.447 45.46633,0 86.20593,-32.63165 121.99375,-98.34204 z"
         id="path29"
         style="fill:#b2dfdb;fill-opacity:1;fill-rule:evenodd;image-rendering:optimizeQuality;shape-rendering:geometricPrecision;text-rendering:geometricPrecision"
         inkscape:connector-curvature="0" />
    </g>
  </g>
</svg>
