<?xml version="1.0" encoding="UTF-8" standalone="no"?>
<!-- Created with Inkscape (http://www.inkscape.org/) -->

<svg
   xmlns:dc="http://purl.org/dc/elements/1.1/"
   xmlns:cc="http://creativecommons.org/ns#"
   xmlns:rdf="http://www.w3.org/1999/02/22-rdf-syntax-ns#"
   xmlns:svg="http://www.w3.org/2000/svg"
   xmlns="http://www.w3.org/2000/svg"
   xmlns:sodipodi="http://sodipodi.sourceforge.net/DTD/sodipodi-0.dtd"
   xmlns:inkscape="http://www.inkscape.org/namespaces/inkscape"
   width="750"
   height="750"
   viewBox="0 0 750.00002 750.00002"
   id="svg2"
   version="1.1"
   inkscape:version="0.91 r13725"
   sodipodi:docname="logo.svg">
  <defs
     id="defs4">
    <filter
       inkscape:menu-tooltip="In and out glow with a possible offset and colorizable flood"
       inkscape:menu="Shadows and Glows"
       inkscape:label="Cutout Glow"
       style="color-interpolation-filters:sRGB"
       id="filter4142">
      <feOffset
         dy="3"
         dx="3"
         id="feOffset4144" />
      <feGaussianBlur
         stdDeviation="3"
         result="blur"
         id="feGaussianBlur4146" />
      <feFlood
         flood-color="rgb(0,0,0)"
         flood-opacity="1"
         result="flood"
         id="feFlood4148" />
      <feComposite
         in="flood"
         in2="SourceGraphic"
         operator="in"
         result="composite"
         id="feComposite4150" />
      <feBlend
         in="blur"
         in2="composite"
         mode="normal"
         id="feBlend4152" />
    </filter>
  </defs>
  <sodipodi:namedview
     id="base"
     pagecolor="#ffffff"
     bordercolor="#666666"
     borderopacity="1.0"
     inkscape:pageopacity="0.0"
     inkscape:pageshadow="2"
     inkscape:zoom="0.56409314"
     inkscape:cx="653.48447"
     inkscape:cy="185.80313"
     inkscape:document-units="px"
     inkscape:current-layer="layer1"
     showgrid="true"
     inkscape:showpageshadow="false"
     showborder="true"
     showguides="true"
     inkscape:snap-bbox="true"
     inkscape:snap-object-midpoints="true"
     inkscape:snap-grids="true"
     inkscape:window-width="1366"
     inkscape:window-height="705"
     inkscape:window-x="-8"
     inkscape:window-y="-8"
     inkscape:window-maximized="1"
     inkscape:snap-nodes="false"
     inkscape:snap-global="false"
     units="px"
     width="750mm">
    <inkscape:grid
       type="xygrid"
       id="grid4138" />
  </sodipodi:namedview>
  <metadata
     id="metadata7">
    <rdf:RDF>
      <cc:Work
         rdf:about="">
        <dc:format>image/svg+xml</dc:format>
        <dc:type
           rdf:resource="http://purl.org/dc/dcmitype/StillImage" />
        <dc:title></dc:title>
      </cc:Work>
    </rdf:RDF>
  </metadata>
  <g
     inkscape:label="Layer 1"
     inkscape:groupmode="layer"
     id="layer1"
     transform="translate(0,-302.36192)">
    <circle
       style="opacity:1;fill:#009688;fill-opacity:1"
       id="path3336"
       cx="374.99997"
       cy="677.36188"
       r="320.80991" />
    <g
       id="g4197"
       transform="translate(17.14422,0)">
      <text
         xml:space="preserve"
         style="font-style:normal;font-weight:normal;font-size:61.89077377px;line-height:125%;font-family:sans-serif;text-align:center;letter-spacing:0px;word-spacing:0px;text-anchor:middle;fill:#b2dfdb;fill-opacity:1;stroke:none;stroke-width:1px;stroke-linecap:butt;stroke-linejoin:miter;stroke-opacity:1"
         x="463.86725"
         y="685.29022"
         id="text4158"
         sodipodi:linespacing="125%"><tspan
           sodipodi:role="line"
           x="463.86725"
           y="685.29022"
           style="font-size:139.25424194px;fill:#b2dfdb;fill-opacity:1"
           id="tspan4772" /><tspan
           sodipodi:role="line"
           x="463.86725"
           y="808.4267"
           id="tspan4164"
           style="font-style:normal;font-variant:normal;font-weight:normal;font-stretch:normal;font-size:89.99999237px;font-family:sans-serif;-inkscape-font-specification:sans-serif;fill:#b2dfdb;fill-opacity:1">  usic</tspan></text>
      <path
         class="fil1 str1"
         d="m 191.95193,758.02877 232.03084,0 0,6.14919 c -8.46736,0.75297 -15.16541,2.38436 -19.84141,4.89425 -4.67601,2.50988 -9.47838,6.14919 -14.28076,11.29442 -4.8024,5.01973 -11.50044,12.17285 -20.22056,21.3339 -15.9237,16.43968 -34.6277,24.59675 -56.36481,24.59675 -7.45631,0 -14.78628,-1.00395 -22.24259,-3.01183 -6.31892,2.00788 -13.14337,3.01183 -20.22057,3.01183 -5.56065,0 -12.00595,-0.75298 -19.20951,-2.50988 -5.18153,4.01581 -13.39612,6.02369 -24.77019,6.02369 -7.83546,0 -15.92368,-1.00392 -24.01191,-3.26283 -8.08823,-2.1334 -15.29179,-5.27074 -21.7371,-9.53749 l 0,-4.01581 c 15.7973,7.52962 29.44619,11.29444 40.94662,11.29444 7.32996,0 14.02802,-1.38046 19.9678,-4.26678 6.06616,-2.88638 11.50045,-6.90219 16.4292,-12.04743 4.80239,-5.14524 9.35201,-10.66691 13.5225,-16.6906 4.04412,-6.02369 9.98389,-15.05927 17.56662,-27.10663 l -113.99337,0 c -7.45634,0 -14.28079,-2.50986 -20.47331,-7.52963 -6.19256,-5.01973 -11.12131,-11.2944 -14.65992,-18.94952 -3.53859,-7.65513 -5.30789,-15.18474 -5.30789,-22.58882 0,-7.52966 1.89568,-13.67883 5.56065,-18.44756 3.79137,-4.7688 9.35201,-7.15316 16.68196,-7.15316 7.20358,0 13.90164,2.63535 20.09418,7.78059 6.19255,5.01976 11.12131,11.54541 14.91266,19.32604 3.66497,7.78059 5.43427,15.05922 5.43427,21.96135 0,8.15709 -1.89568,14.68274 -5.8134,19.45152 z M 377.981,765.0564 c -7.45633,0 -13.90162,1.75694 -19.08315,5.01976 -5.30789,3.26283 -11.75319,9.03555 -19.33589,17.19262 -7.58272,8.15709 -13.77526,14.55725 -18.83039,19.2005 -5.05515,4.64326 -11.87959,9.03558 -20.34695,13.05134 3.0331,0.502 5.93979,0.75297 8.59374,0.75297 10.36303,0 19.71505,-2.76085 28.18241,-8.40806 8.59373,-5.64723 15.54454,-11.92191 21.1052,-19.07503 5.56065,-7.02764 12.13233,-16.31416 19.71503,-27.7341 z m -43.9797,-0.50196 c -7.96184,0.50196 -15.03904,2.76085 -21.35797,6.77668 -6.3189,4.01575 -12.38509,9.03551 -18.32487,15.18467 -5.8134,6.14921 -11.75318,12.54939 -17.94572,19.07503 -6.19255,6.52569 -11.8796,11.16893 -16.93471,13.9298 1.39015,0.25098 3.4122,0.25098 6.06615,0.25098 25.52846,0 48.40296,-18.32205 68.49714,-55.21716 z"
         id="path29"
         style="fill:#b2dfdb;fill-opacity:1;fill-rule:evenodd;image-rendering:optimizeQuality;shape-rendering:geometricPrecision;text-rendering:geometricPrecision"
         inkscape:connector-curvature="0" />
    </g>
    <text
       xml:space="preserve"
       style="font-style:normal;font-weight:normal;font-size:64.68480682px;line-height:125%;font-family:sans-serif;letter-spacing:0px;word-spacing:0px;fill:#b2dfdb;fill-opacity:1;stroke:none;stroke-width:1px;stroke-linecap:butt;stroke-linejoin:miter;stroke-opacity:1"
       x="374.46701"
       y="614.39819"
       id="text4776"
       sodipodi:linespacing="125%"><tspan
         sodipodi:role="line"
         id="tspan4778"
         x="374.46701"
         y="614.39819"
         style="font-style:normal;font-variant:normal;font-weight:normal;font-stretch:normal;font-size:145.54081726px;font-family:sans-serif;-inkscape-font-specification:sans-serif;text-align:center;text-anchor:middle;fill:#b2dfdb;fill-opacity:1">Circle</tspan><tspan
         sodipodi:role="line"
         x="374.46701"
         y="796.32422"
         id="tspan4780"
         style="font-style:normal;font-variant:normal;font-weight:normal;font-stretch:normal;font-size:145.54081726px;font-family:Stellar;-inkscape-font-specification:Stellar;text-align:center;text-anchor:middle;fill:#b2dfdb;fill-opacity:1" /></text>
    <text
       xml:space="preserve"
       style="font-style:normal;font-variant:normal;font-weight:normal;font-stretch:normal;font-size:90px;line-height:125%;font-family:Stellar;-inkscape-font-specification:Stellar;letter-spacing:0px;word-spacing:0px;fill:#b2dfdb;fill-opacity:1;stroke:none;stroke-width:1px;stroke-linecap:butt;stroke-linejoin:miter;stroke-opacity:1"
       x="328.06641"
       y="710.66193"
       id="text5304"
       sodipodi:linespacing="125%"><tspan
         sodipodi:role="line"
         id="tspan5306"
         x="328.06641"
         y="710.66193"
         style="font-style:normal;font-variant:normal;font-weight:normal;font-stretch:normal;font-family:sans-serif;-inkscape-font-specification:sans-serif">of</tspan></text>
  </g>
</svg>
